<svg xmlns="http://www.w3.org/2000/svg" id="Шар_1" width="100%" height="100%" data-name="Шар 1" viewBox="0 0 60.11 11.17"><defs><style>.cls-1{fill:#fff}</style></defs><path d="M11.44,7.46A5.38,5.38,0,0,1,6,13.19,5.25,5.25,0,0,1,.61,7.75,5.44,5.44,0,0,1,6.08,2,5.22,5.22,0,0,1,11.44,7.46Zm-10,.26A4.6,4.6,0,0,0,6,12.55c2.85,0,4.63-2.16,4.63-5A4.6,4.6,0,0,0,6.05,2.66C3,2.66,1.42,5.06,1.42,7.72Z" class="cls-1" transform="translate(-0.61 -2.02)"/><path d="M25.73,7.91c-.11-1.6-.25-3.68-.25-4.83h0c-.43,1.15-.92,2.4-1.61,4L21.33,13h-.59L18.4,7.19c-.67-1.68-1.17-3-1.52-4.11h0c-.05,1.24-.13,3.21-.27,5L16.19,13h-.77l.87-10.79h.9l2.59,6.44c.54,1.34,1,2.46,1.28,3.44h0c.29-.91.72-2,1.33-3.43l2.72-6.45h.93L26.84,13h-.77Z" class="cls-1" transform="translate(-0.61 -2.02)"/><path d="M37.17,7.64h-4.8v4.7h5.34V13H31.58V2.21h5.86v.66H32.37V7h4.8Z" class="cls-1" transform="translate(-0.61 -2.02)"/><path d="M42.06,2.21h.79V12.34h5.34V13H42.06Z" class="cls-1" transform="translate(-0.61 -2.02)"/><path d="M53.58,9.21,52.1,13h-.82L55.63,2.21h.77L60.72,13h-.81L58.39,9.21Zm4.55-.66L56.61,4.76A17.84,17.84,0,0,1,56,3h0a16.45,16.45,0,0,1-.6,1.67L53.86,8.55Z" class="cls-1" transform="translate(-0.61 -2.02)"/></svg>